<svg width="158" height="159" viewBox="0 0 158 159" fill="none" xmlns="http://www.w3.org/2000/svg">
<rect x="0.440002" y="0.493286" width="157.508" height="157.508" rx="11" fill="#C42860"/>
<rect x="0.940002" y="0.993286" width="156.508" height="156.508" rx="10.5" stroke="white" stroke-opacity="0.11"/>
<path d="M78.5979 46.4691C80.596 41.6579 85.1607 38.2961 90.4699 38.2961C97.6217 38.2961 102.773 44.5116 103.42 51.9191C103.42 51.9191 103.77 53.7579 103 57.0683C101.953 61.5768 99.4901 65.5823 96.1702 68.6392L78.5979 84.5667L61.3217 68.6382C58.0017 65.5823 55.5392 61.5758 54.4917 57.0673C53.7223 53.7569 54.0718 51.9181 54.0718 51.9181C54.7194 44.5106 59.8702 38.2951 67.022 38.2951C72.3322 38.2951 76.5998 41.6579 78.5979 46.4691Z" fill="white"/>
<path d="M43.5978 114.043H41.8473V117.946H39.6501V107.282H43.6125C44.8722 107.282 45.8439 107.563 46.5275 108.125C47.2111 108.686 47.5529 109.48 47.5529 110.505C47.5529 111.233 47.3942 111.84 47.0768 112.329C46.7643 112.812 46.2883 113.198 45.6486 113.486L47.9557 117.844V117.946H45.5973L43.5978 114.043ZM41.8473 112.263H43.6198C44.1716 112.263 44.5988 112.124 44.9015 111.845C45.2043 111.562 45.3556 111.174 45.3556 110.681C45.3556 110.178 45.2116 109.782 44.9235 109.494C44.6403 109.206 44.2033 109.062 43.6125 109.062H41.8473V112.263ZM49.5114 113.911C49.5114 113.125 49.6628 112.424 49.9655 111.809C50.2682 111.193 50.7028 110.717 51.2692 110.38C51.8405 110.044 52.5021 109.875 53.2541 109.875C54.3234 109.875 55.195 110.202 55.8688 110.857C56.5475 111.511 56.926 112.4 57.0041 113.523L57.0187 114.065C57.0187 115.28 56.6794 116.257 56.0007 116.994C55.3219 117.727 54.4113 118.093 53.2687 118.093C52.1261 118.093 51.2131 117.727 50.5295 116.994C49.8508 116.262 49.5114 115.266 49.5114 114.006V113.911ZM51.6281 114.065C51.6281 114.816 51.7697 115.393 52.0529 115.793C52.3361 116.189 52.7414 116.386 53.2687 116.386C53.7814 116.386 54.1818 116.191 54.4699 115.8C54.758 115.405 54.902 114.775 54.902 113.911C54.902 113.173 54.758 112.602 54.4699 112.197C54.1818 111.792 53.7765 111.589 53.2541 111.589C52.7365 111.589 52.3361 111.792 52.0529 112.197C51.7697 112.597 51.6281 113.22 51.6281 114.065ZM61.0573 110.022L61.1232 110.908C61.6847 110.219 62.444 109.875 63.401 109.875C64.4216 109.875 65.1222 110.278 65.5031 111.084C66.0597 110.278 66.8532 109.875 67.8835 109.875C68.7428 109.875 69.3825 110.127 69.8024 110.629C70.2223 111.128 70.4323 111.879 70.4323 112.885V117.946H68.3083V112.893C68.3083 112.443 68.2204 112.116 68.0446 111.911C67.8688 111.701 67.5588 111.596 67.1144 111.596C66.4797 111.596 66.0402 111.899 65.7961 112.504L65.8034 117.946H63.6867V112.9C63.6867 112.441 63.5964 112.109 63.4157 111.904C63.235 111.699 62.9274 111.596 62.4928 111.596C61.8923 111.596 61.4577 111.845 61.1891 112.343V117.946H59.0724V110.022H61.0573ZM77.4079 117.946C77.3102 117.756 77.2394 117.519 77.1955 117.236C76.6828 117.807 76.0163 118.093 75.196 118.093C74.4196 118.093 73.7751 117.868 73.2624 117.419C72.7546 116.97 72.5007 116.403 72.5007 115.72C72.5007 114.88 72.8107 114.235 73.4308 113.786C74.0558 113.337 74.9567 113.11 76.1335 113.105H77.1076V112.651C77.1076 112.285 77.0124 111.992 76.8219 111.772C76.6364 111.552 76.341 111.442 75.9357 111.442C75.5793 111.442 75.2985 111.528 75.0934 111.699C74.8932 111.87 74.7931 112.104 74.7931 112.402H72.6764C72.6764 111.943 72.818 111.518 73.1012 111.128C73.3844 110.737 73.7848 110.432 74.3024 110.212C74.82 109.987 75.401 109.875 76.0456 109.875C77.0221 109.875 77.7961 110.122 78.3674 110.615C78.9435 111.103 79.2316 111.792 79.2316 112.68V116.115C79.2365 116.867 79.3415 117.436 79.5466 117.822V117.946H77.4079ZM75.6574 116.474C75.9699 116.474 76.258 116.406 76.5217 116.269C76.7853 116.128 76.9806 115.94 77.1076 115.705V114.343H76.3166C75.257 114.343 74.693 114.709 74.6247 115.441L74.6174 115.566C74.6174 115.83 74.7101 116.047 74.8957 116.218C75.0812 116.389 75.3351 116.474 75.6574 116.474ZM76.4631 106.696H78.7702L76.7414 108.967H75.0202L76.4631 106.696ZM83.5558 110.022L83.6218 110.937C84.1882 110.229 84.9474 109.875 85.8996 109.875C86.7394 109.875 87.3644 110.122 87.7746 110.615C88.1847 111.108 88.3947 111.845 88.4045 112.827V117.946H86.2878V112.878C86.2878 112.429 86.1901 112.104 85.9948 111.904C85.7995 111.699 85.4748 111.596 85.0207 111.596C84.425 111.596 83.9782 111.85 83.6803 112.358V117.946H81.5636V110.022H83.5558ZM93.3 108.073V110.022H94.655V111.574H93.3V115.529C93.3 115.822 93.3561 116.032 93.4684 116.159C93.5807 116.286 93.7956 116.35 94.113 116.35C94.3473 116.35 94.5549 116.333 94.7355 116.298V117.902C94.3205 118.029 93.8932 118.093 93.4538 118.093C91.9694 118.093 91.2126 117.343 91.1833 115.844V111.574H90.026V110.022H91.1833V108.073H93.3ZM98.818 117.946H96.694V110.022H98.818V117.946ZM96.5695 107.971C96.5695 107.653 96.6745 107.392 96.8844 107.187C97.0993 106.982 97.3898 106.879 97.756 106.879C98.1174 106.879 98.4054 106.982 98.6203 107.187C98.8351 107.392 98.9425 107.653 98.9425 107.971C98.9425 108.293 98.8327 108.557 98.613 108.762C98.3981 108.967 98.1125 109.069 97.756 109.069C97.3996 109.069 97.1115 108.967 96.8918 108.762C96.6769 108.557 96.5695 108.293 96.5695 107.971ZM104.614 116.386C105.005 116.386 105.322 116.279 105.567 116.064C105.811 115.849 105.938 115.564 105.947 115.207H107.932C107.927 115.744 107.781 116.237 107.493 116.687C107.205 117.131 106.809 117.478 106.306 117.727C105.808 117.971 105.257 118.093 104.651 118.093C103.518 118.093 102.625 117.734 101.97 117.016C101.316 116.294 100.989 115.297 100.989 114.028V113.889C100.989 112.668 101.314 111.694 101.963 110.966C102.612 110.239 103.504 109.875 104.636 109.875C105.628 109.875 106.421 110.158 107.017 110.725C107.617 111.286 107.923 112.036 107.932 112.973H105.947C105.938 112.563 105.811 112.231 105.567 111.977C105.322 111.718 105 111.589 104.6 111.589C104.107 111.589 103.733 111.77 103.479 112.131C103.23 112.487 103.106 113.068 103.106 113.874V114.094C103.106 114.909 103.23 115.495 103.479 115.852C103.728 116.208 104.107 116.386 104.614 116.386ZM109.561 113.911C109.561 113.125 109.713 112.424 110.015 111.809C110.318 111.193 110.753 110.717 111.319 110.38C111.89 110.044 112.552 109.875 113.304 109.875C114.373 109.875 115.245 110.202 115.919 110.857C116.597 111.511 116.976 112.4 117.054 113.523L117.069 114.065C117.069 115.28 116.729 116.257 116.05 116.994C115.372 117.727 114.461 118.093 113.319 118.093C112.176 118.093 111.263 117.727 110.579 116.994C109.901 116.262 109.561 115.266 109.561 114.006V113.911ZM111.678 114.065C111.678 114.816 111.82 115.393 112.103 115.793C112.386 116.189 112.791 116.386 113.319 116.386C113.831 116.386 114.232 116.191 114.52 115.8C114.808 115.405 114.952 114.775 114.952 113.911C114.952 113.173 114.808 112.602 114.52 112.197C114.232 111.792 113.826 111.589 113.304 111.589C112.786 111.589 112.386 111.792 112.103 112.197C111.82 112.597 111.678 113.22 111.678 114.065Z" fill="white"/>
</svg>
