<svg width="159" height="159" viewBox="0 0 159 159" fill="none" xmlns="http://www.w3.org/2000/svg">
<rect x="0.998871" y="0.493286" width="157.508" height="157.508" rx="11" fill="#FFAF13"/>
<rect x="1.49887" y="0.993286" width="156.508" height="156.508" rx="10.5" stroke="white" stroke-opacity="0.11"/>
<path d="M61.6806 115.739H57.8281L57.0956 117.937H54.7592L58.7289 107.272H60.7651L64.7568 117.937H62.4203L61.6806 115.739ZM58.4213 113.96H61.0873L59.747 109.968L58.4213 113.96ZM68.5976 117.937H66.4736V106.687H68.5976V117.937ZM74.7455 118.083C73.5834 118.083 72.6362 117.727 71.9037 117.014C71.1762 116.301 70.8124 115.351 70.8124 114.165V113.96C70.8124 113.164 70.9662 112.453 71.2739 111.828C71.5815 111.198 72.016 110.715 72.5776 110.378C73.144 110.036 73.7885 109.865 74.5112 109.865C75.5951 109.865 76.4472 110.207 77.0673 110.891C77.6923 111.574 78.0048 112.543 78.0048 113.798V114.663H72.9584C73.0268 115.18 73.2319 115.595 73.5737 115.908C73.9203 116.22 74.3573 116.376 74.8847 116.376C75.7001 116.376 76.3373 116.081 76.7963 115.49L77.8364 116.655C77.519 117.104 77.0893 117.456 76.5473 117.71C76.0053 117.959 75.4047 118.083 74.7455 118.083ZM74.5038 111.579C74.0839 111.579 73.7421 111.721 73.4784 112.004C73.2197 112.287 73.0536 112.692 72.9804 113.22H75.9247V113.051C75.915 112.583 75.788 112.221 75.5439 111.967C75.2997 111.709 74.9531 111.579 74.5038 111.579ZM79.6557 113.916C79.6557 112.7 79.9438 111.721 80.5199 110.979C81.101 110.236 81.8823 109.865 82.8637 109.865C83.7328 109.865 84.4091 110.163 84.8925 110.759L84.9804 110.012H86.8993V117.673C86.8993 118.366 86.7407 118.969 86.4233 119.482C86.1108 119.995 85.6689 120.385 85.0976 120.654C84.5263 120.922 83.8573 121.057 83.0907 121.057C82.5097 121.057 81.9433 120.939 81.3915 120.705C80.8398 120.476 80.4223 120.178 80.1391 119.812L81.0766 118.522C81.6039 119.113 82.2436 119.409 82.9955 119.409C83.5571 119.409 83.9941 119.257 84.3066 118.955C84.6191 118.657 84.7753 118.232 84.7753 117.68V117.255C84.287 117.807 83.6449 118.083 82.849 118.083C81.8969 118.083 81.1254 117.712 80.5346 116.97C79.9487 116.223 79.6557 115.234 79.6557 114.003V113.916ZM81.7724 114.069C81.7724 114.787 81.9164 115.351 82.2045 115.761C82.4926 116.167 82.8881 116.369 83.391 116.369C84.0356 116.369 84.497 116.127 84.7753 115.644V112.312C84.4921 111.828 84.0356 111.586 83.4057 111.586C82.8979 111.586 82.4975 111.794 82.2045 112.209C81.9164 112.624 81.7724 113.244 81.7724 114.069ZM93.7358 111.997C93.4477 111.958 93.1938 111.938 92.974 111.938C92.1733 111.938 91.6484 112.209 91.3993 112.751V117.937H89.2826V110.012H91.2822L91.3407 110.957C91.7655 110.229 92.3539 109.865 93.1059 109.865C93.3403 109.865 93.56 109.897 93.7651 109.96L93.7358 111.997ZM99.0121 118.083C97.85 118.083 96.9028 117.727 96.1703 117.014C95.4428 116.301 95.079 115.351 95.079 114.165V113.96C95.079 113.164 95.2328 112.453 95.5405 111.828C95.8481 111.198 96.2826 110.715 96.8442 110.378C97.4106 110.036 98.0551 109.865 98.7778 109.865C99.8617 109.865 100.714 110.207 101.334 110.891C101.959 111.574 102.271 112.543 102.271 113.798V114.663H97.225C97.2934 115.18 97.4985 115.595 97.8403 115.908C98.1869 116.22 98.6239 116.376 99.1513 116.376C99.9667 116.376 100.604 116.081 101.063 115.49L102.103 116.655C101.786 117.104 101.356 117.456 100.814 117.71C100.272 117.959 99.6713 118.083 99.0121 118.083ZM98.7704 111.579C98.3505 111.579 98.0087 111.721 97.745 112.004C97.4863 112.287 97.3202 112.692 97.247 113.22H100.191V113.051C100.182 112.583 100.055 112.221 99.8105 111.967C99.5663 111.709 99.2197 111.579 98.7704 111.579Z" fill="white"/>
<g clip-path="url(#clip0)">
<path d="M82.1154 89.5466C97.3385 89.5466 109.679 77.0158 109.679 61.5583C109.679 46.1007 97.3385 33.5699 82.1154 33.5699C66.8923 33.5699 54.5515 46.1007 54.5515 61.5583C54.5515 77.0158 66.8923 89.5466 82.1154 89.5466Z" fill="white"/>
<path d="M100.209 61.5768C100.209 71.7243 92.1072 79.9502 82.1137 79.9502C72.1205 79.9502 64.0189 71.7243 64.0189 61.5768H100.209Z" fill="#F7B816"/>
<path d="M73.737 56.2996C76.1278 56.2996 78.066 54.3316 78.066 51.9039C78.066 49.4763 76.1278 47.5083 73.737 47.5083C71.3462 47.5083 69.408 49.4763 69.408 51.9039C69.408 54.3316 71.3462 56.2996 73.737 56.2996Z" fill="#F7B816"/>
<path d="M90.1064 56.2996C92.4972 56.2996 94.4353 54.3316 94.4353 51.9039C94.4353 49.4763 92.4972 47.5083 90.1064 47.5083C87.7155 47.5083 85.7774 49.4763 85.7774 51.9039C85.7774 54.3316 87.7155 56.2996 90.1064 56.2996Z" fill="#F7B816"/>
</g>
<defs>
<clipPath id="clip0">
<rect width="55.1277" height="55.9766" fill="white" transform="translate(54.5515 33.5699)"/>
</clipPath>
</defs>
</svg>
