<svg width="158" height="159" viewBox="0 0 158 159" fill="none" xmlns="http://www.w3.org/2000/svg">
<rect x="0.397217" y="0.913239" width="157.508" height="157.508" rx="11" fill="#FF6E1D"/>
<rect x="0.897217" y="1.41324" width="156.508" height="156.508" rx="10.5" stroke="white" stroke-opacity="0.11"/>
<path d="M44.5131 114.584H40.6605L39.9281 116.781H37.5917L41.5614 106.117H43.5975L47.5892 116.781H45.2528L44.5131 114.584ZM41.2538 112.804H43.9198L42.5795 108.813L41.2538 112.804ZM51.7963 114.196L53.2684 108.857H55.4803L52.807 116.781H50.7855L48.1122 108.857H50.3241L51.7963 114.196ZM60.7128 116.928C59.5506 116.928 58.6034 116.571 57.871 115.859C57.1434 115.146 56.7797 114.196 56.7797 113.009V112.804C56.7797 112.008 56.9335 111.298 57.2411 110.673C57.5487 110.043 57.9833 109.56 58.5448 109.223C59.1112 108.881 59.7557 108.71 60.4784 108.71C61.5624 108.71 62.4144 109.052 63.0345 109.736C63.6595 110.419 63.972 111.388 63.972 112.643V113.507H58.9256C58.994 114.025 59.1991 114.44 59.5409 114.753C59.8876 115.065 60.3246 115.221 60.8519 115.221C61.6673 115.221 62.3046 114.926 62.7635 114.335L63.8036 115.5C63.4862 115.949 63.0565 116.3 62.5145 116.554C61.9725 116.803 61.3719 116.928 60.7128 116.928ZM60.4711 110.424C60.0511 110.424 59.7093 110.566 59.4457 110.849C59.1869 111.132 59.0209 111.537 58.9476 112.065H61.892V111.896C61.8822 111.427 61.7552 111.066 61.5111 110.812C61.267 110.553 60.9203 110.424 60.4711 110.424ZM67.8788 108.857L67.9447 109.772C68.5111 109.064 69.2704 108.71 70.2225 108.71C71.0624 108.71 71.6874 108.957 72.0975 109.45C72.5077 109.943 72.7176 110.68 72.7274 111.662V116.781H70.6107V111.713C70.6107 111.264 70.5131 110.939 70.3177 110.739C70.1224 110.534 69.7977 110.431 69.3436 110.431C68.7479 110.431 68.3011 110.685 68.0033 111.193V116.781H65.8866V108.857H67.8788ZM77.6229 106.908V108.857H78.9779V110.409H77.6229V114.364C77.6229 114.657 77.6791 114.867 77.7914 114.994C77.9037 115.121 78.1185 115.185 78.4359 115.185C78.6703 115.185 78.8778 115.168 79.0585 115.133V116.737C78.6434 116.864 78.2162 116.928 77.7767 116.928C76.2923 116.928 75.5355 116.178 75.5062 114.679V110.409H74.349V108.857H75.5062V106.908H77.6229ZM85.6532 115.976C85.1307 116.611 84.4081 116.928 83.4852 116.928C82.6356 116.928 81.9862 116.684 81.537 116.195C81.0926 115.707 80.8656 114.992 80.8558 114.049V108.857H82.9725V113.976C82.9725 114.801 83.3485 115.214 84.1005 115.214C84.8182 115.214 85.3114 114.965 85.5799 114.467V108.857H87.704V116.781H85.7118L85.6532 115.976ZM94.5038 110.841C94.2157 110.802 93.9618 110.783 93.7421 110.783C92.9413 110.783 92.4164 111.054 92.1673 111.596V116.781H90.0506V108.857H92.0502L92.1088 109.801C92.5336 109.074 93.1219 108.71 93.8739 108.71C94.1083 108.71 94.328 108.742 94.5331 108.805L94.5038 110.841ZM99.7801 116.928C98.618 116.928 97.6708 116.571 96.9383 115.859C96.2108 115.146 95.847 114.196 95.847 113.009V112.804C95.847 112.008 96.0008 111.298 96.3085 110.673C96.6161 110.043 97.0506 109.56 97.6122 109.223C98.1786 108.881 98.8231 108.71 99.5458 108.71C100.63 108.71 101.482 109.052 102.102 109.736C102.727 110.419 103.039 111.388 103.039 112.643V113.507H97.993C98.0614 114.025 98.2665 114.44 98.6083 114.753C98.9549 115.065 99.392 115.221 99.9193 115.221C100.735 115.221 101.372 114.926 101.831 114.335L102.871 115.5C102.554 115.949 102.124 116.3 101.582 116.554C101.04 116.803 100.439 116.928 99.7801 116.928ZM99.5384 110.424C99.1185 110.424 98.7767 110.566 98.513 110.849C98.2543 111.132 98.0882 111.537 98.015 112.065H100.959V111.896C100.95 111.427 100.823 111.066 100.578 110.812C100.334 110.553 99.9877 110.424 99.5384 110.424ZM109.451 110.841C109.163 110.802 108.909 110.783 108.689 110.783C107.889 110.783 107.364 111.054 107.115 111.596V116.781H104.998V108.857H106.997L107.056 109.801C107.481 109.074 108.069 108.71 108.821 108.71C109.056 108.71 109.275 108.742 109.48 108.805L109.451 110.841ZM110.633 112.746C110.633 111.96 110.785 111.259 111.087 110.644C111.39 110.028 111.825 109.552 112.391 109.215C112.962 108.879 113.624 108.71 114.376 108.71C115.445 108.71 116.317 109.037 116.991 109.692C117.669 110.346 118.048 111.235 118.126 112.358L118.14 112.9C118.14 114.115 117.801 115.092 117.122 115.829C116.444 116.562 115.533 116.928 114.39 116.928C113.248 116.928 112.335 116.562 111.651 115.829C110.973 115.097 110.633 114.101 110.633 112.841V112.746ZM112.75 112.9C112.75 113.652 112.891 114.228 113.175 114.628C113.458 115.024 113.863 115.221 114.39 115.221C114.903 115.221 115.304 115.026 115.592 114.635C115.88 114.24 116.024 113.61 116.024 112.746C116.024 112.008 115.88 111.437 115.592 111.032C115.304 110.627 114.898 110.424 114.376 110.424C113.858 110.424 113.458 110.627 113.175 111.032C112.891 111.432 112.75 112.055 112.75 112.9Z" fill="white"/>
<g clip-path="url(#clip0)">
<path d="M113.004 71.0814L119.289 47.8267C119.95 45.3834 118.475 42.8754 115.995 42.2248L92.3947 36.0329C89.915 35.3824 87.3696 36.8357 86.7092 39.2789L80.4242 62.5336C79.7638 64.9769 81.2387 67.4849 83.7182 68.1355L107.319 74.3274C109.798 74.9781 112.344 73.5247 113.004 71.0814Z" fill="white"/>
<path d="M111.804 73.1354C111.386 71.6098 110.176 70.3394 108.515 69.9037L89.7777 64.9879C87.0914 64.2831 85.4937 61.5661 86.2091 58.9191L91.1989 40.4569C91.6418 38.8191 91.1243 37.1541 89.9896 36.0373C88.4412 36.4503 87.1515 37.6417 86.7093 39.279L80.4242 62.5338C79.7638 64.9771 81.2387 67.4851 83.7182 68.1356L107.319 74.3275C108.98 74.7636 110.671 74.2536 111.804 73.1354Z" fill="#DBDBDB"/>
<path d="M54.72 92.5064L78.3014 86.2414C80.779 85.5831 82.246 83.0704 81.578 80.6293L75.2209 57.3942C74.5529 54.953 72.003 53.5077 69.5254 54.1659L45.944 60.431C43.4664 61.0893 41.9994 63.6018 42.6674 66.0431L49.0247 89.2782C49.6923 91.719 52.2424 93.1646 54.72 92.5064Z" fill="white"/>
<path d="M78.3014 86.2412C79.9616 85.8001 81.1668 84.5259 81.5811 82.999C80.444 81.8844 78.7521 81.3798 77.0919 81.821L58.3705 86.7949C55.6864 87.508 52.9241 85.9421 52.2003 83.2975L47.153 64.8508C46.7055 63.215 45.4125 62.0276 43.8629 61.6194C42.7315 62.7399 42.2194 64.407 42.6669 66.0428L49.0242 89.2779C49.6922 91.7191 52.2421 93.1644 54.7197 92.5062L78.3014 86.2412Z" fill="#DBDBDB"/>
<path d="M67.1818 78.1814C67.1847 80.0777 68.7472 81.6125 70.6717 81.6095C72.5963 81.6065 74.154 80.0668 74.1511 78.1706C74.1481 76.2743 72.5856 74.7394 70.6611 74.7424C68.7366 74.7454 67.1788 76.2851 67.1818 78.1814Z" fill="#FF6E1D"/>
<path d="M50.0961 68.4959C50.099 70.3922 51.6615 71.927 53.5861 71.924C55.5106 71.9211 57.0683 70.3814 57.0654 68.4851C57.0624 66.5888 55.4999 65.054 53.5754 65.057C51.6509 65.06 50.0931 66.5996 50.0961 68.4959Z" fill="#FF6E1D"/>
<path d="M58.6376 73.3413C58.6405 75.2376 60.203 76.7724 62.1276 76.7694C64.0521 76.7664 65.6098 75.2268 65.6069 73.3305C65.604 71.4342 64.0414 69.8994 62.1169 69.9024C60.1924 69.9054 58.6346 71.445 58.6376 73.3413Z" fill="#FF6E1D"/>
<path d="M104.899 50.3148C104.902 52.2111 106.465 53.7459 108.389 53.743C110.314 53.74 111.871 52.2003 111.868 50.304C111.866 48.4077 110.303 46.8729 108.378 46.8759C106.454 46.8789 104.896 48.4185 104.899 50.3148Z" fill="#FF6E1D"/>
<path d="M101.313 63.5886C101.316 65.4849 102.879 67.0197 104.803 67.0167C106.728 67.0137 108.286 65.474 108.283 63.5778C108.28 61.6815 106.717 60.1466 104.793 60.1496C102.868 60.1526 101.31 61.6923 101.313 63.5886Z" fill="#FF6E1D"/>
<path d="M91.431 46.7824C91.4339 48.6787 92.9964 50.2135 94.921 50.2105C96.8455 50.2075 98.4032 48.6678 98.4003 46.7716C98.3974 44.8753 96.8348 43.3404 94.9103 43.3434C92.9858 43.3464 91.428 44.8861 91.431 46.7824Z" fill="#FF6E1D"/>
<path d="M87.8425 60.0533C87.8454 61.9496 89.408 63.4844 91.3325 63.4814C93.257 63.4784 94.8148 61.9388 94.8118 60.0425C94.8089 58.1462 93.2464 56.6114 91.3218 56.6143C89.3973 56.6173 87.8395 58.157 87.8425 60.0533Z" fill="#FF6E1D"/>
</g>
<defs>
<clipPath id="clip0">
<rect width="75.84" height="76.9694" fill="white" transform="matrix(0.00155055 0.999999 -0.999999 0.0015521 119.416 26.2784)"/>
</clipPath>
</defs>
</svg>
