<svg width="159" height="159" viewBox="0 0 159 159" fill="none" xmlns="http://www.w3.org/2000/svg">
<rect x="0.947113" y="0.680542" width="157.508" height="157.508" rx="11" fill="#E30A31"/>
<rect x="1.44711" y="1.18054" width="156.508" height="156.508" rx="10.5" stroke="white" stroke-opacity="0.11"/>
<path d="M53.3056 119.152L55.7226 111.132H58.1689L54.4555 121.796H52.163L48.4643 111.132H50.9032L53.3056 119.152ZM64.0458 121.796C63.9482 121.605 63.8774 121.368 63.8334 121.085C63.3207 121.657 62.6542 121.942 61.8339 121.942C61.0575 121.942 60.413 121.718 59.9003 121.268C59.3925 120.819 59.1386 120.253 59.1386 119.569C59.1386 118.729 59.4487 118.085 60.0688 117.636C60.6938 117.186 61.5947 116.959 62.7714 116.954H63.7455V116.5C63.7455 116.134 63.6503 115.841 63.4599 115.621C63.2743 115.402 62.9789 115.292 62.5737 115.292C62.2172 115.292 61.9365 115.377 61.7314 115.548C61.5312 115.719 61.4311 115.953 61.4311 116.251H59.3144C59.3144 115.792 59.456 115.367 59.7392 114.977C60.0224 114.586 60.4228 114.281 60.9404 114.061C61.4579 113.837 62.039 113.724 62.6835 113.724C63.6601 113.724 64.434 113.971 65.0053 114.464C65.5815 114.952 65.8696 115.641 65.8696 116.53V119.965C65.8744 120.717 65.9794 121.285 66.1845 121.671V121.796H64.0458ZM62.2953 120.324C62.6078 120.324 62.8959 120.255 63.1596 120.118C63.4233 119.977 63.6186 119.789 63.7455 119.555V118.192H62.9545C61.8949 118.192 61.331 118.558 61.2626 119.291L61.2553 119.415C61.2553 119.679 61.3481 119.896 61.5336 120.067C61.7192 120.238 61.9731 120.324 62.2953 120.324ZM70.4794 121.796H68.3554V110.546H70.4794V121.796ZM75.2138 121.796H73.0898V113.871H75.2138V121.796ZM72.9653 111.82C72.9653 111.503 73.0702 111.242 73.2802 111.036C73.495 110.831 73.7856 110.729 74.1518 110.729C74.5131 110.729 74.8012 110.831 75.016 111.036C75.2309 111.242 75.3383 111.503 75.3383 111.82C75.3383 112.142 75.2284 112.406 75.0087 112.611C74.7939 112.816 74.5082 112.919 74.1518 112.919C73.7953 112.919 73.5073 112.816 73.2875 112.611C73.0727 112.406 72.9653 112.142 72.9653 111.82ZM81.3617 121.942C80.1996 121.942 79.2524 121.586 78.5199 120.873C77.7924 120.16 77.4286 119.21 77.4286 118.024V117.819C77.4286 117.023 77.5824 116.312 77.8901 115.687C78.1977 115.057 78.6323 114.574 79.1938 114.237C79.7602 113.895 80.4047 113.724 81.1274 113.724C82.2114 113.724 83.0634 114.066 83.6835 114.75C84.3085 115.433 84.621 116.403 84.621 117.658V118.522H79.5746C79.643 119.039 79.8481 119.454 80.1899 119.767C80.5365 120.079 80.9736 120.236 81.5009 120.236C82.3163 120.236 82.9535 119.94 83.4125 119.349L84.4526 120.514C84.1352 120.963 83.7055 121.315 83.1635 121.569C82.6215 121.818 82.0209 121.942 81.3617 121.942ZM81.12 115.438C80.7001 115.438 80.3583 115.58 80.0947 115.863C79.8359 116.146 79.6698 116.552 79.5966 117.079H82.5409V116.91C82.5312 116.442 82.4042 116.08 82.1601 115.826C81.9159 115.568 81.5693 115.438 81.12 115.438ZM88.5278 113.871L88.5937 114.786C89.1601 114.078 89.9194 113.724 90.8715 113.724C91.7113 113.724 92.3363 113.971 92.7465 114.464C93.1567 114.957 93.3666 115.695 93.3764 116.676V121.796H91.2597V116.727C91.2597 116.278 91.162 115.953 90.9667 115.753C90.7714 115.548 90.4467 115.446 89.9926 115.446C89.3969 115.446 88.9501 115.7 88.6523 116.207V121.796H86.5356V113.871H88.5278ZM98.2719 111.923V113.871H99.6269V115.424H98.2719V119.379C98.2719 119.672 98.328 119.882 98.4404 120.009C98.5527 120.136 98.7675 120.199 99.0849 120.199C99.3193 120.199 99.5268 120.182 99.7074 120.148V121.752C99.2924 121.879 98.8652 121.942 98.4257 121.942C96.9413 121.942 96.1845 121.193 96.1552 119.694V115.424H94.998V113.871H96.1552V111.923H98.2719ZM105.204 121.942C104.041 121.942 103.094 121.586 102.362 120.873C101.634 120.16 101.27 119.21 101.27 118.024V117.819C101.27 117.023 101.424 116.312 101.732 115.687C102.039 115.057 102.474 114.574 103.036 114.237C103.602 113.895 104.247 113.724 104.969 113.724C106.053 113.724 106.905 114.066 107.525 114.75C108.15 115.433 108.463 116.403 108.463 117.658V118.522H103.416C103.485 119.039 103.69 119.454 104.032 119.767C104.378 120.079 104.815 120.236 105.343 120.236C106.158 120.236 106.795 119.94 107.254 119.349L108.294 120.514C107.977 120.963 107.547 121.315 107.005 121.569C106.463 121.818 105.863 121.942 105.204 121.942ZM104.962 115.438C104.542 115.438 104.2 115.58 103.936 115.863C103.678 116.146 103.512 116.552 103.438 117.079H106.383V116.91C106.373 116.442 106.246 116.08 106.002 115.826C105.758 115.568 105.411 115.438 104.962 115.438Z" fill="white"/>
<path d="M105.427 58.9411C104.88 58.8261 104.224 58.7113 103.349 58.5964C99.1921 58.2518 95.0352 59.5154 91.7536 62.1578C90.8785 62.8471 90.0033 63.5365 88.9095 64.4555C87.5968 65.6044 86.3936 65.2597 84.862 64.5704C84.2057 64.2258 83.44 63.996 82.4555 63.7662C76.7672 62.3876 70.4227 65.7192 69.5475 67.7871C69.5475 67.7871 68.3443 66.7531 66.9222 67.3275C66.9222 67.3275 69.2194 64.4554 67.9067 54.9201C67.9067 54.9201 67.4691 45.1549 71.8447 43.6615C71.8447 43.6615 74.47 42.9722 75.6733 44.3508C76.8765 45.7294 80.7052 45.3847 80.7052 45.3847C80.7052 45.3847 83.9869 45.3847 84.9714 45.8443C85.9559 46.3039 89.2375 44.4657 89.2375 44.4657C89.2375 44.4657 90.3315 42.6275 88.7999 42.5127C88.7999 42.5127 91.5347 41.4788 90.3314 40.3299L86.2841 32.5178C86.2841 32.5178 84.5339 31.369 77.2049 33.3221C69.8758 35.39 70.4228 34.356 65.9378 38.7216C61.4529 42.9722 55.5459 56.4136 55.5459 56.4136C55.5459 56.4136 51.8266 67.6722 53.2487 75.9438C53.5769 78.0117 53.7956 80.0796 53.6863 82.1475C53.6863 82.2624 53.6863 82.3772 53.6863 82.6071C53.5769 83.756 54.6708 84.675 55.874 85.1346C57.6243 85.9388 59.5933 86.0536 61.4529 85.5941C62.6561 85.3644 64.7345 85.5941 65.5003 85.9388C66.9224 86.5132 74.0326 89.7299 86.8312 84.6751C88.2532 84.1007 89.6752 83.4114 91.0973 82.6072C92.6287 81.6882 95.8011 80.9989 97.8794 87.3174H105.427V58.9411Z" fill="white"/>
</svg>
