<svg width="159" height="159" viewBox="0 0 159 159" fill="none" xmlns="http://www.w3.org/2000/svg">
<rect x="0.853905" y="0.680542" width="157.508" height="157.508" rx="11" fill="#484B8D"/>
<rect x="1.3539" y="1.18054" width="156.508" height="156.508" rx="10.5" stroke="white" stroke-opacity="0.11"/>
<path d="M52.8081 117.979H48.5893V122.337H46.3921V111.673H53.3354V113.453H48.5893V116.207H52.8081V117.979ZM59.8056 121.531C59.2832 122.166 58.5605 122.484 57.6377 122.484C56.7881 122.484 56.1386 122.24 55.6894 121.751C55.2451 121.263 55.018 120.548 55.0083 119.605V114.412H57.125V119.532C57.125 120.357 57.501 120.77 58.2529 120.77C58.9707 120.77 59.4638 120.521 59.7324 120.023V114.412H61.8564V122.337H59.8642L59.8056 121.531ZM66.7373 112.464V114.412H68.0923V115.965H66.7373V119.92C66.7373 120.213 66.7934 120.423 66.9057 120.55C67.018 120.677 67.2329 120.74 67.5503 120.74C67.7846 120.74 67.9922 120.723 68.1728 120.689V122.293C67.7578 122.42 67.3305 122.484 66.8911 122.484C65.4067 122.484 64.6499 121.734 64.6206 120.235V115.965H63.4634V114.412H64.6206V112.464H66.7373ZM74.7676 121.531C74.2451 122.166 73.5224 122.484 72.5996 122.484C71.75 122.484 71.1006 122.24 70.6513 121.751C70.207 121.263 69.98 120.548 69.9702 119.605V114.412H72.0869V119.532C72.0869 120.357 72.4629 120.77 73.2148 120.77C73.9326 120.77 74.4258 120.521 74.6943 120.023V114.412H76.8183V122.337H74.8261L74.7676 121.531ZM83.6181 116.397C83.3301 116.358 83.0761 116.339 82.8564 116.339C82.0556 116.339 81.5307 116.61 81.2817 117.152V122.337H79.165V114.412H81.1645L81.2231 115.357C81.6479 114.63 82.2363 114.266 82.9883 114.266C83.2226 114.266 83.4424 114.298 83.6474 114.361L83.6181 116.397ZM87.6274 122.337H85.5034V114.412H87.6274V122.337ZM85.3789 112.362C85.3789 112.044 85.4839 111.783 85.6938 111.578C85.9087 111.373 86.1992 111.27 86.5654 111.27C86.9267 111.27 87.2148 111.373 87.4297 111.578C87.6445 111.783 87.7519 112.044 87.7519 112.362C87.7519 112.684 87.6421 112.948 87.4223 113.153C87.2075 113.358 86.9218 113.46 86.5654 113.46C86.209 113.46 85.9209 113.358 85.7011 113.153C85.4863 112.948 85.3789 112.684 85.3789 112.362ZM94.4199 120.147C94.4199 119.888 94.2905 119.686 94.0317 119.539C93.7778 119.388 93.3676 119.254 92.8012 119.136C90.9165 118.741 89.9741 117.94 89.9741 116.734C89.9741 116.031 90.2646 115.445 90.8457 114.976C91.4316 114.503 92.1958 114.266 93.1382 114.266C94.144 114.266 94.9472 114.503 95.5478 114.976C96.1533 115.45 96.456 116.065 96.456 116.822H94.3393C94.3393 116.519 94.2417 116.27 94.0464 116.075C93.851 115.875 93.5459 115.775 93.1308 115.775C92.7744 115.775 92.4985 115.855 92.3032 116.016C92.1079 116.177 92.0102 116.383 92.0102 116.632C92.0102 116.866 92.1201 117.056 92.3398 117.203C92.5644 117.344 92.9404 117.469 93.4677 117.576C93.9951 117.679 94.4394 117.796 94.8008 117.928C95.9189 118.338 96.478 119.049 96.478 120.059C96.478 120.782 96.1679 121.368 95.5478 121.817C94.9277 122.261 94.1269 122.484 93.1455 122.484C92.4814 122.484 91.8906 122.366 91.373 122.132C90.8603 121.893 90.4575 121.568 90.1645 121.158C89.8716 120.743 89.7251 120.296 89.7251 119.818H91.7319C91.7514 120.194 91.8906 120.482 92.1494 120.682C92.4082 120.882 92.7549 120.982 93.1894 120.982C93.5947 120.982 93.8999 120.906 94.105 120.755C94.3149 120.599 94.4199 120.396 94.4199 120.147ZM101.132 112.464V114.412H102.487V115.965H101.132V119.92C101.132 120.213 101.188 120.423 101.3 120.55C101.413 120.677 101.627 120.74 101.945 120.74C102.179 120.74 102.387 120.723 102.567 120.689V122.293C102.152 122.42 101.725 122.484 101.286 122.484C99.8012 122.484 99.0444 121.734 99.0151 120.235V115.965H97.8579V114.412H99.0151V112.464H101.132ZM109.008 122.337C108.911 122.147 108.84 121.91 108.796 121.627C108.283 122.198 107.617 122.484 106.796 122.484C106.02 122.484 105.375 122.259 104.863 121.81C104.355 121.361 104.101 120.794 104.101 120.111C104.101 119.271 104.411 118.626 105.031 118.177C105.656 117.728 106.557 117.501 107.734 117.496H108.708V117.042C108.708 116.676 108.613 116.383 108.422 116.163C108.237 115.943 107.941 115.833 107.536 115.833C107.18 115.833 106.899 115.919 106.694 116.09C106.494 116.26 106.394 116.495 106.394 116.793H104.277C104.277 116.334 104.418 115.909 104.702 115.518C104.985 115.128 105.385 114.823 105.903 114.603C106.42 114.378 107.001 114.266 107.646 114.266C108.623 114.266 109.396 114.512 109.968 115.006C110.544 115.494 110.832 116.182 110.832 117.071V120.506C110.837 121.258 110.942 121.827 111.147 122.213V122.337H109.008ZM107.258 120.865C107.57 120.865 107.858 120.797 108.122 120.66C108.386 120.518 108.581 120.33 108.708 120.096V118.734H107.917C106.857 118.734 106.293 119.1 106.225 119.832L106.218 119.957C106.218 120.22 106.311 120.438 106.496 120.609C106.682 120.78 106.936 120.865 107.258 120.865Z" fill="white"/>
<g clip-path="url(#clip0)">
<path d="M86.1789 50.9092C86.1789 49.5794 87.1739 48.4855 88.4286 48.4855C89.6626 48.4855 90.6548 49.5794 90.6548 50.9092C90.6548 52.2417 89.6599 53.3245 88.4286 53.3245C87.1738 53.3218 86.1789 52.2419 86.1789 50.9092ZM79.1934 30.3008H79.1753V33.6157H82.025V30.4007C83.0044 29.8705 83.6772 28.7876 83.6772 27.53C83.6693 25.7448 82.3342 24.3068 80.6897 24.3068C79.0324 24.3068 77.6945 25.7448 77.6945 27.5272C77.6945 28.721 78.2998 29.7455 79.1934 30.3008ZM72.9691 53.3218C74.2083 53.3218 75.2162 52.2391 75.2162 50.9065C75.2162 49.5767 74.2083 48.4828 72.9691 48.4828C71.7274 48.4828 70.7194 49.5767 70.7194 50.9065C70.7195 52.2419 71.7248 53.3218 72.9691 53.3218ZM80.6897 90.9378C84.0643 90.9378 86.9322 88.6057 88.0311 85.3908H73.3536C74.4395 88.6057 77.3127 90.9378 80.6897 90.9378ZM57.302 81.1124C57.302 79.827 57.9956 78.7221 59.0009 78.2112V64.5019C59.0009 61.7895 60.9544 59.5823 63.4197 59.3964V52.7749C63.4197 52.7749 64.0224 40.6953 73.3588 36.9277C76.128 35.8173 78.6557 35.3675 80.8534 35.2786C83.051 35.3701 85.5866 35.8171 88.3479 36.9305C97.6843 40.6841 98.2819 52.7775 98.2819 52.7775V59.4296C100.758 59.5906 102.706 61.7978 102.706 64.5102V78.2112C103.706 78.7221 104.407 79.8297 104.407 81.118C104.407 82.8948 103.067 84.3275 101.42 84.3275C99.7679 84.3275 98.43 82.8922 98.43 81.118C98.43 79.8297 99.121 78.7276 100.121 78.2112V69.0661C99.5601 69.3576 98.9418 69.5492 98.2871 69.6019V72.7807C98.3078 73.0445 98.3287 73.2999 98.3287 73.5581C98.3287 73.8413 98.308 74.1023 98.2871 74.3966V74.4743H98.2767C97.8869 79.7603 94.0188 84.0304 89.1403 84.6106L89.1455 84.6744H80.8534H72.5508L72.5534 84.6106C67.6748 84.0248 63.8249 79.7826 63.4196 74.4743H63.4144V74.3966C63.3911 74.1051 63.378 73.8413 63.378 73.5581C63.378 73.3027 63.3988 73.0501 63.4144 72.7807V69.6019C62.7597 69.5465 62.1311 69.3576 61.5778 69.0661V78.2112C62.5804 78.7221 63.2819 79.8297 63.2819 81.118C63.2819 82.8948 61.9389 84.3275 60.2867 84.3275C58.6371 84.3275 57.302 82.8893 57.302 81.1124ZM85.8334 64.2521C85.8334 63.3915 85.1865 62.6918 84.3968 62.6918C83.5992 62.6918 82.968 63.3915 82.968 64.2521C82.968 65.1045 83.5992 65.8012 84.3968 65.8012C85.1917 65.7984 85.8334 65.1016 85.8334 64.2521ZM89.3819 64.2521C89.3819 63.3915 88.7298 62.6918 87.9401 62.6918C87.1529 62.6918 86.5087 63.3915 86.5087 64.2521C86.5087 65.1045 87.1555 65.8012 87.9401 65.8012C88.7273 65.7984 89.3819 65.1016 89.3819 64.2521ZM92.9434 64.2521C92.9434 63.3915 92.2939 62.6918 91.4939 62.6918C90.7015 62.6918 90.0496 63.3915 90.0496 64.2521C90.0496 65.1045 90.7017 65.8012 91.4939 65.8012C92.2941 65.7984 92.9434 65.1016 92.9434 64.2521ZM68.7295 51.3506C68.7295 55.4679 71.7196 55.7343 71.7196 55.7343C72.756 56.0925 74.9641 55.9232 75.9539 55.7343C76.8709 55.5733 80.2351 55.2624 80.765 55.2123C80.7883 55.2123 80.8221 55.2151 80.8481 55.2151C80.8767 55.2151 80.9105 55.2123 80.9235 55.2123C81.4664 55.2596 84.8201 55.5733 85.7345 55.7343C86.7398 55.9232 88.9403 56.0925 89.9767 55.7343C89.9767 55.7343 92.9641 55.4789 92.9641 51.3506C92.9641 51.3506 92.9641 46.7809 89.9767 43.9989C87.0749 41.317 82.7029 40.7284 81.0092 40.7007C80.9806 40.7007 80.9494 40.7007 80.9209 40.7007C80.9002 40.7007 80.869 40.7007 80.8455 40.7007C80.8196 40.7007 80.7884 40.7007 80.7599 40.7007C80.7313 40.7007 80.7054 40.7007 80.6845 40.7007C78.9856 40.7284 74.6135 41.3198 71.7117 43.9989C68.7295 46.7809 68.7295 51.3506 68.7295 51.3506Z" fill="white"/>
</g>
<defs>
<clipPath id="clip0">
<rect width="62.3468" height="66.6311" fill="white" transform="translate(49.6813 24.3068)"/>
</clipPath>
</defs>
</svg>
