<svg width="158" height="159" viewBox="0 0 158 159" fill="none" xmlns="http://www.w3.org/2000/svg">
<rect x="0.441925" y="0.913239" width="157.508" height="157.508" rx="11" fill="#567B96"/>
<rect x="0.941925" y="1.41324" width="156.508" height="156.508" rx="10.5" stroke="white" stroke-opacity="0.11"/>
<path d="M48.0075 115.728H45.8102L41.5329 108.711V115.728H39.3356V105.064H41.5329L45.8175 112.095V105.064H48.0075V115.728ZM50.2077 111.692C50.2077 110.906 50.359 110.206 50.6618 109.59C50.9645 108.975 51.3991 108.499 51.9655 108.162C52.5368 107.825 53.1984 107.657 53.9503 107.657C55.0197 107.657 55.8913 107.984 56.5651 108.638C57.2438 109.292 57.6222 110.181 57.7003 111.304L57.715 111.846C57.715 113.062 57.3756 114.039 56.6969 114.776C56.0182 115.508 55.1076 115.875 53.965 115.875C52.8224 115.875 51.9093 115.508 51.2257 114.776C50.547 114.043 50.2077 113.047 50.2077 111.788V111.692ZM52.3244 111.846C52.3244 112.598 52.466 113.174 52.7492 113.575C53.0324 113.97 53.4376 114.168 53.965 114.168C54.4777 114.168 54.8781 113.973 55.1662 113.582C55.4542 113.187 55.5983 112.557 55.5983 111.692C55.5983 110.955 55.4542 110.384 55.1662 109.979C54.8781 109.573 54.4728 109.371 53.9503 109.371C53.4328 109.371 53.0324 109.573 52.7492 109.979C52.466 110.379 52.3244 111.001 52.3244 111.846ZM64.0607 113.538C64.0607 113.279 63.9313 113.077 63.6725 112.93C63.4186 112.779 63.0084 112.645 62.442 112.527C60.5573 112.132 59.6149 111.331 59.6149 110.125C59.6149 109.422 59.9054 108.836 60.4865 108.367C61.0724 107.894 61.8366 107.657 62.7789 107.657C63.7848 107.657 64.588 107.894 65.1886 108.367C65.7941 108.841 66.0968 109.456 66.0968 110.213H63.9801C63.9801 109.91 63.8825 109.661 63.6872 109.466C63.4918 109.266 63.1867 109.166 62.7716 109.166C62.4152 109.166 62.1393 109.246 61.944 109.407C61.7487 109.568 61.651 109.773 61.651 110.022C61.651 110.257 61.7609 110.447 61.9806 110.594C62.2052 110.735 62.5812 110.86 63.1085 110.967C63.6359 111.07 64.0802 111.187 64.4415 111.319C65.5597 111.729 66.1188 112.439 66.1188 113.45C66.1188 114.173 65.8087 114.759 65.1886 115.208C64.5685 115.652 63.7677 115.875 62.7863 115.875C62.1222 115.875 61.5314 115.757 61.0138 115.523C60.5011 115.284 60.0983 114.959 59.8053 114.549C59.5123 114.134 59.3659 113.687 59.3659 113.208H61.3727C61.3922 113.584 61.5314 113.873 61.7902 114.073C62.049 114.273 62.3956 114.373 62.8302 114.373C63.2355 114.373 63.5407 114.297 63.7457 114.146C63.9557 113.99 64.0607 113.787 64.0607 113.538ZM70.7726 105.855V107.803H72.1276V109.356H70.7726V113.311C70.7726 113.604 70.8288 113.814 70.9411 113.941C71.0534 114.068 71.2682 114.131 71.5856 114.131C71.82 114.131 72.0275 114.114 72.2081 114.08V115.684C71.7931 115.811 71.3659 115.875 70.9264 115.875C69.442 115.875 68.6852 115.125 68.6559 113.626V109.356H67.4987V107.803H68.6559V105.855H70.7726ZM78.6491 115.728C78.5514 115.538 78.4806 115.301 78.4367 115.018C77.924 115.589 77.2575 115.875 76.4372 115.875C75.6608 115.875 75.0163 115.65 74.5036 115.201C73.9957 114.751 73.7418 114.185 73.7418 113.501C73.7418 112.662 74.0519 112.017 74.672 111.568C75.297 111.119 76.1979 110.892 77.3747 110.887H78.3488V110.433C78.3488 110.066 78.2536 109.773 78.0631 109.554C77.8776 109.334 77.5822 109.224 77.1769 109.224C76.8205 109.224 76.5397 109.31 76.3346 109.48C76.1344 109.651 76.0343 109.886 76.0343 110.184H73.9176C73.9176 109.725 74.0592 109.3 74.3424 108.909C74.6256 108.519 75.026 108.213 75.5436 107.994C76.0612 107.769 76.6422 107.657 77.2868 107.657C78.2633 107.657 79.0373 107.903 79.6085 108.396C80.1847 108.885 80.4728 109.573 80.4728 110.462V113.897C80.4777 114.649 80.5827 115.218 80.7877 115.604V115.728H78.6491ZM76.8986 114.256C77.2111 114.256 77.4992 114.188 77.7628 114.051C78.0265 113.909 78.2218 113.721 78.3488 113.487V112.125H77.5578C76.4982 112.125 75.9342 112.491 75.8659 113.223L75.8585 113.348C75.8585 113.611 75.9513 113.829 76.1369 114C76.3224 114.17 76.5763 114.256 76.8986 114.256ZM77.7042 104.478H80.0114L77.9826 106.749H76.2614L77.7042 104.478ZM85.0827 115.728H82.9586V104.478H85.0827V115.728ZM87.2755 111.707C87.2755 110.491 87.5636 109.512 88.1398 108.77C88.7208 108.028 89.5021 107.657 90.4835 107.657C91.3527 107.657 92.0289 107.955 92.5123 108.55L92.6002 107.803H94.5192V115.464C94.5192 116.158 94.3605 116.761 94.0431 117.273C93.7306 117.786 93.2887 118.177 92.7174 118.445C92.1461 118.714 91.4772 118.848 90.7106 118.848C90.1295 118.848 89.5631 118.731 89.0114 118.497C88.4596 118.267 88.0421 117.969 87.7589 117.603L88.6964 116.314C89.2238 116.905 89.8634 117.2 90.6154 117.2C91.1769 117.2 91.6139 117.049 91.9264 116.746C92.2389 116.448 92.3952 116.023 92.3952 115.472V115.047C91.9069 115.599 91.2648 115.875 90.4689 115.875C89.5167 115.875 88.7453 115.503 88.1544 114.761C87.5685 114.014 87.2755 113.025 87.2755 111.795V111.707ZM89.3922 111.861C89.3922 112.579 89.5363 113.143 89.8244 113.553C90.1124 113.958 90.5079 114.161 91.0109 114.161C91.6554 114.161 92.1168 113.919 92.3952 113.436V110.103C92.112 109.62 91.6554 109.378 91.0255 109.378C90.5177 109.378 90.1173 109.585 89.8244 110C89.5363 110.416 89.3922 111.036 89.3922 111.861ZM99.1364 115.728H97.0123V107.803H99.1364V115.728ZM96.8878 105.752C96.8878 105.435 96.9928 105.174 97.2028 104.969C97.4176 104.764 97.7081 104.661 98.0744 104.661C98.4357 104.661 98.7238 104.764 98.9386 104.969C99.1535 105.174 99.2609 105.435 99.2609 105.752C99.2609 106.075 99.151 106.338 98.9313 106.543C98.7164 106.749 98.4308 106.851 98.0744 106.851C97.7179 106.851 97.4298 106.749 97.2101 106.543C96.9953 106.338 96.8878 106.075 96.8878 105.752ZM104.933 114.168C105.323 114.168 105.641 114.061 105.885 113.846C106.129 113.631 106.256 113.345 106.266 112.989H108.251C108.246 113.526 108.099 114.019 107.811 114.468C107.523 114.913 107.128 115.259 106.625 115.508C106.127 115.752 105.575 115.875 104.969 115.875C103.837 115.875 102.943 115.516 102.289 114.798C101.634 114.075 101.307 113.079 101.307 111.81V111.67C101.307 110.45 101.632 109.476 102.281 108.748C102.931 108.021 103.822 107.657 104.955 107.657C105.946 107.657 106.739 107.94 107.335 108.506C107.936 109.068 108.241 109.817 108.251 110.755H106.266C106.256 110.345 106.129 110.013 105.885 109.759C105.641 109.5 105.318 109.371 104.918 109.371C104.425 109.371 104.051 109.551 103.798 109.913C103.548 110.269 103.424 110.85 103.424 111.656V111.875C103.424 112.691 103.548 113.277 103.798 113.633C104.047 113.99 104.425 114.168 104.933 114.168ZM109.88 111.692C109.88 110.906 110.031 110.206 110.334 109.59C110.636 108.975 111.071 108.499 111.637 108.162C112.209 107.825 112.87 107.657 113.622 107.657C114.692 107.657 115.563 107.984 116.237 108.638C116.916 109.292 117.294 110.181 117.372 111.304L117.387 111.846C117.387 113.062 117.048 114.039 116.369 114.776C115.69 115.508 114.779 115.875 113.637 115.875C112.494 115.875 111.581 115.508 110.898 114.776C110.219 114.043 109.88 113.047 109.88 111.788V111.692ZM111.996 111.846C111.996 112.598 112.138 113.174 112.421 113.575C112.704 113.97 113.11 114.168 113.637 114.168C114.15 114.168 114.55 113.973 114.838 113.582C115.126 113.187 115.27 112.557 115.27 111.692C115.27 110.955 115.126 110.384 114.838 109.979C114.55 109.573 114.145 109.371 113.622 109.371C113.105 109.371 112.704 109.573 112.421 109.979C112.138 110.379 111.996 111.001 111.996 111.846Z" fill="white"/>
<ellipse cx="77.5554" cy="58.6897" rx="24.5" ry="25.4423" fill="white"/>
<path fill-rule="evenodd" clip-rule="evenodd" d="M78.2123 65.0646C71.5356 65.0646 66.1229 68.9998 66.1229 73.8539C66.1229 73.8539 66.1229 73.8539 66.1229 73.8539L90.3017 73.8539C90.3017 68.9998 84.8889 65.0646 78.2123 65.0646Z" fill="#536775"/>
<path d="M96.5761 56.9999C91.4593 59.3572 85.3485 57.0479 82.9549 51.8523C82.6554 51.2021 82.9308 50.4355 83.5723 50.14C84.2138 49.8445 84.9754 50.1333 85.2749 50.7834C87.0705 54.681 91.6524 56.4125 95.4908 54.6442C96.1323 54.3486 96.8939 54.6374 97.1935 55.2876C97.493 55.9378 97.2176 56.7044 96.5761 56.9999Z" fill="#536775"/>
<path d="M59.7445 57.7267C59.0732 57.5072 58.7113 56.7775 58.9338 56.0971C59.1564 55.4167 59.8796 55.042 60.5509 55.2616C64.5677 56.5755 68.9193 54.3272 70.2535 50.2486C70.476 49.5682 71.1993 49.1935 71.8706 49.4131C72.5419 49.6327 72.9038 50.3624 72.6813 51.0427C70.9028 56.4797 65.099 59.4783 59.7445 57.7267Z" fill="#536775"/>
</svg>
