<svg width="78" height="77" viewBox="0 0 78 77" fill="none" xmlns="http://www.w3.org/2000/svg">
<g clip-path="url(#clip0)">
<path d="M71.0044 45.0814L77.2894 21.8267C77.9498 19.3834 76.4749 16.8754 73.9954 16.2248L50.3947 10.0329C47.915 9.38235 45.3696 10.8357 44.7092 13.2789L38.4242 36.5336C37.7638 38.9769 39.2387 41.4849 41.7182 42.1355L65.319 48.3274C67.7985 48.9781 70.3439 47.5247 71.0044 45.0814Z" fill="white"/>
<path d="M69.8045 47.1354C69.3856 45.6098 68.1761 44.3394 66.5146 43.9037L47.7777 38.9879C45.0914 38.2831 43.4937 35.566 44.2091 32.9191L49.1989 14.4569C49.6418 12.8191 49.1243 11.1541 47.9896 10.0373C46.4412 10.4503 45.1515 11.6417 44.7093 13.279L38.4242 36.5338C37.7638 38.9771 39.2387 41.4851 41.7182 42.1356L65.319 48.3275C66.9805 48.7636 68.6709 48.2536 69.8045 47.1354Z" fill="#DBDBDB"/>
<path d="M12.72 66.5064L36.3014 60.2414C38.779 59.5831 40.246 57.0704 39.578 54.6293L33.2209 31.3942C32.5529 28.953 30.003 27.5077 27.5254 28.1659L3.94399 34.431C1.46635 35.0893 -0.000578839 37.6018 0.667371 40.0431L7.02467 63.2782C7.69232 65.719 10.2424 67.1646 12.72 66.5064Z" fill="white"/>
<path d="M36.3014 60.2412C37.9616 59.8001 39.1668 58.5259 39.5811 56.999C38.444 55.8844 36.7521 55.3798 35.0919 55.821L16.3705 60.7949C13.6864 61.508 10.9241 59.9421 10.2003 57.2975L5.15305 38.8508C4.70553 37.215 3.4125 36.0276 1.86285 35.6194C0.731545 36.7399 0.219398 38.407 0.666917 40.0428L7.02423 63.2779C7.69218 65.7191 10.2421 67.1644 12.7197 66.5062L36.3014 60.2412Z" fill="#DBDBDB"/>
<path d="M25.1818 52.1814C25.1847 54.0777 26.7472 55.6125 28.6717 55.6095C30.5963 55.6065 32.154 54.0668 32.1511 52.1706C32.1481 50.2743 30.5856 48.7394 28.6611 48.7424C26.7366 48.7454 25.1788 50.2851 25.1818 52.1814Z" fill="#FF6E1D"/>
<path d="M8.09608 42.4959C8.09902 44.3922 9.66154 45.927 11.5861 45.924C13.5106 45.9211 15.0683 44.3814 15.0654 42.4851C15.0624 40.5888 13.4999 39.054 11.5754 39.057C9.65089 39.06 8.09314 40.5996 8.09608 42.4959Z" fill="#FF6E1D"/>
<path d="M16.6376 47.3413C16.6405 49.2376 18.203 50.7724 20.1276 50.7694C22.0521 50.7664 23.6098 49.2268 23.6069 47.3305C23.604 45.4342 22.0414 43.8994 20.1169 43.9024C18.1924 43.9054 16.6346 45.445 16.6376 47.3413Z" fill="#FF6E1D"/>
<path d="M62.8992 24.3148C62.9021 26.2111 64.4646 27.7459 66.3891 27.743C68.3137 27.74 69.8714 26.2003 69.8685 24.304C69.8655 22.4077 68.303 20.8729 66.3785 20.8759C64.454 20.8789 62.8962 22.4185 62.8992 24.3148Z" fill="#FF6E1D"/>
<path d="M59.3134 37.5886C59.3164 39.4849 60.8789 41.0197 62.8034 41.0167C64.728 41.0137 66.2857 39.474 66.2828 37.5778C66.2798 35.6815 64.7173 34.1466 62.7928 34.1496C60.8682 34.1526 59.3105 35.6923 59.3134 37.5886Z" fill="#FF6E1D"/>
<path d="M49.431 20.7824C49.4339 22.6787 50.9964 24.2135 52.921 24.2105C54.8455 24.2075 56.4032 22.6678 56.4003 20.7716C56.3974 18.8753 54.8348 17.3404 52.9103 17.3434C50.9858 17.3464 49.428 18.8861 49.431 20.7824Z" fill="#FF6E1D"/>
<path d="M45.8425 34.0533C45.8454 35.9496 47.408 37.4844 49.3325 37.4814C51.257 37.4784 52.8148 35.9388 52.8118 34.0425C52.8089 32.1462 51.2464 30.6114 49.3218 30.6143C47.3973 30.6173 45.8395 32.157 45.8425 34.0533Z" fill="#FF6E1D"/>
</g>
<defs>
<clipPath id="clip0">
<rect width="75.84" height="76.9694" fill="white" transform="matrix(0.00155055 0.999999 -0.999999 0.0015521 77.4156 0.278404)"/>
</clipPath>
</defs>
</svg>
