<svg width="64" height="67" viewBox="0 0 64 67" fill="none" xmlns="http://www.w3.org/2000/svg">
<g clip-path="url(#clip0)">
<path d="M37.1789 26.9092C37.1789 25.5794 38.1739 24.4855 39.4286 24.4855C40.6626 24.4855 41.6548 25.5794 41.6548 26.9092C41.6548 28.2417 40.6599 29.3245 39.4286 29.3245C38.1738 29.3218 37.1789 28.2419 37.1789 26.9092ZM30.1934 6.30079H30.1753V9.61573H33.025V6.4007C34.0044 5.87049 34.6772 4.78762 34.6772 3.53001C34.6693 1.74483 33.3342 0.306763 31.6897 0.306763C30.0324 0.306763 28.6945 1.74483 28.6945 3.52722C28.6945 4.72101 29.2998 5.74549 30.1934 6.30079ZM23.9691 29.3218C25.2083 29.3218 26.2162 28.2391 26.2162 26.9065C26.2162 25.5767 25.2083 24.4828 23.9691 24.4828C22.7274 24.4828 21.7194 25.5767 21.7194 26.9065C21.7195 28.2419 22.7248 29.3218 23.9691 29.3218ZM31.6897 66.9378C35.0643 66.9378 37.9322 64.6057 39.0311 61.3908H24.3536C25.4395 64.6057 28.3127 66.9378 31.6897 66.9378ZM8.30196 57.1124C8.30196 55.827 8.99562 54.7221 10.0009 54.2112V40.5019C10.0009 37.7895 11.9544 35.5823 14.4197 35.3964V28.7749C14.4197 28.7749 15.0224 16.6953 24.3588 12.9277C27.128 11.8173 29.6557 11.3675 31.8534 11.2786C34.051 11.3701 36.5866 11.8171 39.3479 12.9305C48.6843 16.6841 49.2819 28.7775 49.2819 28.7775V35.4296C51.7575 35.5906 53.7059 37.7978 53.7059 40.5102V54.2112C54.7061 54.7221 55.4075 55.8297 55.4075 57.118C55.4075 58.8948 54.067 60.3275 52.42 60.3275C50.7679 60.3275 49.43 58.8922 49.43 57.118C49.43 55.8297 50.121 54.7276 51.1211 54.2112V45.0661C50.5601 45.3576 49.9418 45.5492 49.2871 45.6019V48.7807C49.3078 49.0445 49.3287 49.2999 49.3287 49.5581C49.3287 49.8413 49.308 50.1023 49.2871 50.3966V50.4743H49.2767C48.8869 55.7603 45.0189 60.0304 40.1403 60.6106L40.1455 60.6744H31.8534H23.5508L23.5534 60.6106C18.6748 60.0248 14.8249 55.7826 14.4196 50.4743H14.4144V50.3966C14.3911 50.1051 14.378 49.8413 14.378 49.5581C14.378 49.3027 14.3988 49.0501 14.4144 48.7807V45.6019C13.7597 45.5465 13.1311 45.3576 12.5778 45.0661V54.2112C13.5804 54.7221 14.2819 55.8297 14.2819 57.118C14.2819 58.8948 12.9389 60.3275 11.2867 60.3275C9.63713 60.3275 8.30196 58.8893 8.30196 57.1124ZM36.8334 40.2521C36.8334 39.3915 36.1865 38.6918 35.3968 38.6918C34.5992 38.6918 33.968 39.3915 33.968 40.2521C33.968 41.1045 34.5992 41.8012 35.3968 41.8012C36.1917 41.7984 36.8334 41.1016 36.8334 40.2521ZM40.3819 40.2521C40.3819 39.3915 39.7298 38.6918 38.9401 38.6918C38.1529 38.6918 37.5087 39.3915 37.5087 40.2521C37.5087 41.1045 38.1555 41.8012 38.9401 41.8012C39.7273 41.7984 40.3819 41.1016 40.3819 40.2521ZM43.9434 40.2521C43.9434 39.3915 43.2939 38.6918 42.4939 38.6918C41.7015 38.6918 41.0496 39.3915 41.0496 40.2521C41.0496 41.1045 41.7017 41.8012 42.4939 41.8012C43.2941 41.7984 43.9434 41.1016 43.9434 40.2521ZM19.7295 27.3506C19.7295 31.4679 22.7196 31.7343 22.7196 31.7343C23.756 32.0925 25.9641 31.9232 26.9539 31.7343C27.8709 31.5733 31.2351 31.2624 31.7649 31.2123C31.7883 31.2123 31.8221 31.2151 31.8481 31.2151C31.8767 31.2151 31.9105 31.2123 31.9235 31.2123C32.4664 31.2596 35.8201 31.5733 36.7345 31.7343C37.7398 31.9232 39.9403 32.0925 40.9767 31.7343C40.9767 31.7343 43.9641 31.4789 43.9641 27.3506C43.9641 27.3506 43.9641 22.7809 40.9767 19.9989C38.0749 17.317 33.7029 16.7284 32.0092 16.7007C31.9806 16.7007 31.9494 16.7007 31.9209 16.7007C31.9002 16.7007 31.869 16.7007 31.8455 16.7007C31.8196 16.7007 31.7884 16.7007 31.7599 16.7007C31.7313 16.7007 31.7054 16.7007 31.6845 16.7007C29.9855 16.7284 25.6135 17.3198 22.7117 19.9989C19.7295 22.7809 19.7295 27.3506 19.7295 27.3506Z" fill="white"/>
</g>
<defs>
<clipPath id="clip0">
<rect width="62.3468" height="66.6311" fill="white" transform="translate(0.681313 0.306763)"/>
</clipPath>
</defs>
</svg>
