<svg width="56" height="57" viewBox="0 0 56 57" fill="none" xmlns="http://www.w3.org/2000/svg">
<g clip-path="url(#clip0)">
<path d="M28.1154 56.5466C43.3385 56.5466 55.6793 44.0158 55.6793 28.5583C55.6793 13.1007 43.3385 0.569885 28.1154 0.569885C12.8923 0.569885 0.551498 13.1007 0.551498 28.5583C0.551498 44.0158 12.8923 56.5466 28.1154 56.5466Z" fill="white"/>
<path d="M46.2092 28.5768C46.2092 38.7243 38.1072 46.9502 28.1137 46.9502C18.1205 46.9502 10.0189 38.7243 10.0189 28.5768H46.2092Z" fill="#F7B816"/>
<path d="M19.737 23.2996C22.1278 23.2996 24.066 21.3316 24.066 18.9039C24.066 16.4763 22.1278 14.5083 19.737 14.5083C17.3462 14.5083 15.408 16.4763 15.408 18.9039C15.408 21.3316 17.3462 23.2996 19.737 23.2996Z" fill="#F7B816"/>
<path d="M36.1064 23.2996C38.4972 23.2996 40.4353 21.3316 40.4353 18.9039C40.4353 16.4763 38.4972 14.5083 36.1064 14.5083C33.7155 14.5083 31.7774 16.4763 31.7774 18.9039C31.7774 21.3316 33.7155 23.2996 36.1064 23.2996Z" fill="#F7B816"/>
</g>
<defs>
<clipPath id="clip0">
<rect width="55.1277" height="55.9766" fill="white" transform="translate(0.551498 0.569885)"/>
</clipPath>
</defs>
</svg>
