<svg width="50" height="52" viewBox="0 0 50 52" fill="none" xmlns="http://www.w3.org/2000/svg">
<ellipse cx="24.5554" cy="25.6897" rx="24.5" ry="25.4423" fill="white"/>
<path fill-rule="evenodd" clip-rule="evenodd" d="M25.2123 32.0646C18.5356 32.0646 13.1229 35.9998 13.1229 40.8539C13.1229 40.8539 13.1229 40.8539 13.1229 40.8539L37.3017 40.8539C37.3017 35.9998 31.8889 32.0646 25.2123 32.0646Z" fill="#536775"/>
<path d="M43.5761 23.9999C38.4593 26.3572 32.3485 24.0479 29.9549 18.8523C29.6554 18.2021 29.9308 17.4355 30.5723 17.14C31.2138 16.8445 31.9754 17.1333 32.2749 17.7834C34.0705 21.681 38.6524 23.4125 42.4908 21.6442C43.1323 21.3486 43.8939 21.6374 44.1935 22.2876C44.493 22.9378 44.2176 23.7044 43.5761 23.9999Z" fill="#536775"/>
<path d="M6.74451 24.7267C6.07323 24.5072 5.71125 23.7775 5.93382 23.0971C6.15639 22.4167 6.87963 22.042 7.55091 22.2616C11.5677 23.5755 15.9193 21.3272 17.2535 17.2486C17.476 16.5682 18.1993 16.1935 18.8706 16.4131C19.5419 16.6327 19.9038 17.3624 19.6813 18.0427C17.9028 23.4797 12.099 26.4783 6.74451 24.7267Z" fill="#536775"/>
</svg>
