<svg width="54" height="56" viewBox="0 0 54 56" fill="none" xmlns="http://www.w3.org/2000/svg">
<path d="M53.4272 26.9411C52.8803 26.8261 52.224 26.7113 51.3488 26.5964C47.1921 26.2518 43.0352 27.5154 39.7536 30.1578C38.8785 30.8471 38.0033 31.5365 36.9095 32.4555C35.5968 33.6044 34.3936 33.2597 32.862 32.5704C32.2057 32.2258 31.44 31.996 30.4555 31.7662C24.7672 30.3876 18.4227 33.7192 17.5475 35.7871C17.5475 35.7871 16.3443 34.7531 14.9222 35.3275C14.9222 35.3275 17.2194 32.4554 15.9067 22.9201C15.9067 22.9201 15.4691 13.1549 19.8447 11.6615C19.8447 11.6615 22.47 10.9722 23.6733 12.3508C24.8765 13.7294 28.7052 13.3847 28.7052 13.3847C28.7052 13.3847 31.9869 13.3847 32.9714 13.8443C33.9559 14.3039 37.2375 12.4657 37.2375 12.4657C37.2375 12.4657 38.3315 10.6275 36.7999 10.5127C36.7999 10.5127 39.5347 9.47877 38.3314 8.3299L34.2841 0.51784C34.2841 0.51784 32.5339 -0.631033 25.2049 1.32206C17.8758 3.38997 18.4228 2.35602 13.9378 6.72156C9.45287 10.9722 3.54586 24.4136 3.54586 24.4136C3.54586 24.4136 -0.173395 35.6722 1.2487 43.9438C1.57686 46.0117 1.79561 48.0796 1.68629 50.1475C1.68629 50.2624 1.68629 50.3772 1.68629 50.6071C1.57686 51.756 2.67079 52.675 3.87403 53.1346C5.62429 53.9388 7.59329 54.0536 9.45287 53.5941C10.6561 53.3644 12.7345 53.5941 13.5003 53.9388C14.9224 54.5132 22.0326 57.7299 34.8312 52.6751C36.2532 52.1007 37.6752 51.4114 39.0973 50.6072C40.6287 49.6882 43.8011 48.9989 45.8794 55.3174H53.4272V26.9411Z" fill="white"/>
</svg>
